<svg width="28" height="28" viewBox="0 0 28 28" fill="none" xmlns="http://www.w3.org/2000/svg">
<path d="M8.90316 9.80004L9.79992 8.90328L13.6316 12.735L13.9999 13.1033L14.3682 12.735L18.1999 8.90328L19.0967 9.80004L15.265 13.6318L14.8967 14L15.265 14.3683L19.0967 18.2L18.1999 19.0968L14.3682 15.2651L13.9999 14.8968L13.6316 15.2651L9.79992 19.0968L8.90316 18.2L12.7349 14.3683L13.1032 14L12.7349 13.6318L8.90316 9.80004ZM13.9999 25.1459C12.4538 25.1459 11.0077 24.8529 9.65627 24.2697C8.29474 23.6822 7.11558 22.8875 6.11404 21.8859C5.11249 20.8844 4.31772 19.7052 3.73021 18.3437C3.14707 16.9923 2.85409 15.5461 2.85409 14C2.85409 12.4539 3.14707 11.0078 3.73021 9.65639C4.31772 8.29486 5.11249 7.11571 6.11404 6.11416C7.11558 5.11261 8.29474 4.31785 9.65627 3.73034C11.0077 3.14719 12.4538 2.85421 13.9999 2.85421C15.546 2.85421 16.9921 3.14719 18.3436 3.73034C19.7051 4.31785 20.8843 5.11261 21.8858 6.11416C22.8874 7.11571 23.6821 8.29486 24.2696 9.65639C24.8528 11.0078 25.1458 12.4539 25.1458 14C25.1458 15.5461 24.8528 16.9923 24.2696 18.3437C23.6821 19.7052 22.8874 20.8844 21.8858 21.8859C20.8843 22.8875 19.7051 23.6822 18.3436 24.2697C16.9921 24.8529 15.546 25.1459 13.9999 25.1459ZM13.9999 23.8542C16.7407 23.8542 19.081 22.8972 20.989 20.9892C22.8971 19.0811 23.8541 16.7408 23.8541 14C23.8541 11.2593 22.8971 8.91898 20.989 7.01092C19.081 5.10287 16.7407 4.14587 13.9999 4.14587C11.2591 4.14587 8.91886 5.10287 7.0108 7.01092C5.10275 8.91898 4.14575 11.2593 4.14575 14C4.14575 16.7408 5.10275 19.0811 7.0108 20.9892C8.91886 22.8972 11.2591 23.8542 13.9999 23.8542Z" fill="#1D1B20" stroke="#FF0000" stroke-width="1.04167"/>
</svg>
