<svg width="28" height="28" viewBox="0 0 28 28" fill="none" xmlns="http://www.w3.org/2000/svg">
<path d="M7.875 15.75C8.8415 15.75 9.625 14.9665 9.625 14C9.625 13.0335 8.8415 12.25 7.875 12.25C6.9085 12.25 6.125 13.0335 6.125 14C6.125 14.9665 6.9085 15.75 7.875 15.75Z" fill="#808080"/>
<path d="M20.125 15.75C21.0915 15.75 21.875 14.9665 21.875 14C21.875 13.0335 21.0915 12.25 20.125 12.25C19.1585 12.25 18.375 13.0335 18.375 14C18.375 14.9665 19.1585 15.75 20.125 15.75Z" fill="#808080"/>
<path d="M14 15.75C14.9665 15.75 15.75 14.9665 15.75 14C15.75 13.0335 14.9665 12.25 14 12.25C13.0335 12.25 12.25 13.0335 12.25 14C12.25 14.9665 13.0335 15.75 14 15.75Z" fill="#808080"/>
<path d="M14 26.25C11.5772 26.25 9.20877 25.5316 7.19427 24.1855C5.17977 22.8395 3.60965 20.9263 2.68248 18.6879C1.75531 16.4495 1.51272 13.9864 1.98539 11.6101C2.45805 9.23388 3.62475 7.05114 5.33795 5.33795C7.05114 3.62475 9.23388 2.45805 11.6101 1.98539C13.9864 1.51272 16.4495 1.75531 18.6879 2.68248C20.9263 3.60965 22.8395 5.17977 24.1855 7.19427C25.5316 9.20877 26.25 11.5772 26.25 14C26.2463 17.2478 24.9545 20.3615 22.658 22.658C20.3615 24.9545 17.2478 26.2463 14 26.25ZM14 3.50001C11.9233 3.50001 9.89323 4.11582 8.16652 5.26957C6.4398 6.42333 5.09399 8.06321 4.29927 9.98183C3.50455 11.9005 3.29662 14.0117 3.70176 16.0485C4.1069 18.0853 5.10693 19.9562 6.57538 21.4246C8.04384 22.8931 9.91476 23.8931 11.9516 24.2982C13.9884 24.7034 16.0996 24.4955 18.0182 23.7007C19.9368 22.906 21.5767 21.5602 22.7304 19.8335C23.8842 18.1068 24.5 16.0767 24.5 14C24.4968 11.2162 23.3896 8.54733 21.4211 6.57889C19.4527 4.61044 16.7838 3.50318 14 3.50001Z" fill="#808080"/>
</svg>
